# xmcd CD database file
#
# Track frame offsets:
#	150
#	53109
#	84334
#	143357
#	182220
#	201871
#	215433
#	224473
#	240476
#	256261
#	271738
#	292002
#	314033
#
# Disc length: 4570 seconds
#
# Revision: 3
# Processed by: cddbd v1.5.2PL0 Copyright (c) Steve Scherf et al.
# Submitted via: CDex 1.51
#
DISCID=c311d80d
DTITLE=Various Artist - Evgeny Svetlanov - Vol.03
DYEAR=1900
DGENRE=Classique
TTITLE0=Mily Balakirev - Symphony N°1 in C major - I. Allegro vivo-Allabreve-Più animao [USSR State Symphony Orchestra - 1974]
TTITLE1=Mily Balakirev - Symphony N°1 in C major - II. Scherzo - Vivo
TTITLE2=Mily Balakirev - Symphony N°1 in C major - III. Andante
TTITLE3=Mily Balakirev - Symphony N°1 in C major - IV. Finale - Allegro moderato (tempo di Polacca)
TTITLE4=Nikolay Rimsky-Korsakov - The Snow Maiden - Suite - I. Introduction  [Bolshoi Theatre Orchestra, 1960]
TTITLE5=Nikolay Rimsky-Korsakov - The Snow Maiden - Suite - II. Dance of the Birds
TTITLE6=Nikolay Rimsky-Korsakov - The Snow Maiden - Suite - III. Procession
TTITLE7=Nikolay Rimsky-Korsakov - The Snow Maiden - Suite - IV. Dance of the Buffoons
TTITLE8=Nikolay Rimsky-Korsakov - Pan Voyevoda - Suite - I. Introduction  [Bolshoi Theatre Orchestra, 1961]
TTITLE9=Nikolay Rimsky-Korsakov - Pan Voyevoda - Suite - II. Krakowiak
TTITLE10=Nikolay Rimsky-Korsakov - Pan Voyevoda - Suite - III. Nocturne
TTITLE11=Nikolay Rimsky-Korsakov - Pan Voyevoda - Suite - IV. Mazurka
TTITLE12=Nikolay Rimsky-Korsakov - Pan Voyevoda - Suite - IV. Polonaise
EXTD=
EXTT0=
EXTT1=
EXTT2=
EXTT3=
EXTT4=
EXTT5=
EXTT6=
EXTT7=
EXTT8=
EXTT9=
EXTT10=
EXTT11=
EXTT12=
PLAYORDER=
